<?xml version="1.0" standalone="no"?>
<!DOCTYPE svg PUBLIC "-//W3C//DTD SVG 20010904//EN"
 "http://www.w3.org/TR/2001/REC-SVG-20010904/DTD/svg10.dtd">
<svg version="1.0" xmlns="http://www.w3.org/2000/svg"
 width="321.000000pt" height="239.000000pt" viewBox="0 0 321.000000 239.000000"
 preserveAspectRatio="xMidYMid meet">

<g transform="translate(0.000000,239.000000) scale(0.100000,-0.100000)"
fill="#000000" stroke="none">
<path d="M1551 2350 c-22 -9 -243 -168 -496 -355 -60 -45 -213 -155 -340 -245
-284 -203 -285 -203 -285 -269 0 -42 4 -53 26 -70 49 -38 84 -26 234 82 l105
75 7 -51 c3 -29 6 -190 7 -358 1 -301 1 -307 24 -340 45 -67 11 -64 770 -67
765 -3 729 -6 777 65 l25 36 3 354 c1 194 6 353 10 353 4 0 50 -32 102 -71
123 -92 144 -102 187 -94 45 8 76 56 69 104 -6 42 -39 77 -136 146 -41 30
-115 83 -165 120 -49 36 -129 93 -177 126 -98 68 -105 83 -95 188 12 123 -23
191 -99 191 -35 0 -47 -5 -68 -31 -16 -19 -26 -43 -26 -62 0 -64 -12 -64 -100
-1 -235 169 -246 176 -291 180 -24 2 -55 -1 -68 -6z m119 -68 c28 -17 201
-142 705 -510 334 -243 340 -248 340 -282 0 -60 -28 -51 -171 53 -71 51 -172
125 -225 163 -53 38 -192 139 -310 225 -247 179 -389 279 -399 279 -18 0 -331
-218 -590 -411 -442 -329 -507 -372 -534 -349 -37 30 -4 71 137 171 56 40 149
107 207 148 58 41 164 117 235 169 72 53 153 112 180 132 28 20 101 74 163
119 170 126 195 135 262 93z m468 -74 c12 -12 18 -198 6 -198 -3 0 -24 14 -45
31 -38 30 -39 33 -39 93 0 66 11 86 45 86 12 0 26 -5 33 -12z m-467 -106 c58
-41 350 -253 462 -335 l67 -50 0 -383 0 -384 -595 2 -596 3 1 373 c0 204 0
376 0 382 0 15 573 429 596 430 6 0 35 -17 65 -38z m679 -868 l0 -373 -24 -28
-24 -28 -669 -3 c-461 -2 -680 0 -705 8 -67 19 -68 23 -68 433 l0 365 36 27
c19 15 38 24 42 20 4 -4 9 -176 12 -383 l5 -377 590 -3 c325 -1 617 1 650 6
l60 7 3 383 2 383 45 -32 45 -32 0 -373z"/>
<path d="M1401 1907 c-42 -21 -64 -62 -69 -124 -5 -76 26 -140 81 -166 81 -40
167 28 167 133 -1 117 -95 200 -179 157z m81 -64 c41 -47 45 -134 8 -168 -16
-15 -22 -15 -46 -3 -36 16 -54 52 -54 103 0 72 54 111 92 68z"/>
<path d="M1690 1903 c-36 -25 -48 -43 -60 -95 -16 -64 -5 -122 32 -164 26 -29
37 -34 73 -34 129 0 186 205 80 288 -34 27 -91 29 -125 5z m94 -58 c33 -33 29
-115 -7 -162 -13 -18 -52 -16 -71 3 -22 21 -22 122 0 152 18 26 56 29 78 7z"/>
<path d="M1145 1667 c-62 -62 -56 -158 15 -229 29 -30 45 -38 73 -38 82 0 127
48 127 133 0 58 -17 94 -65 136 -51 44 -104 44 -150 -2z m133 -67 c25 -37 29
-96 9 -124 -9 -12 -23 -17 -47 -14 -70 6 -106 113 -56 163 31 31 61 23 94 -25z"/>
<path d="M1895 1657 c-34 -34 -45 -52 -50 -91 -10 -67 8 -122 48 -146 88 -54
193 13 205 129 8 90 -42 151 -124 151 -30 0 -45 -8 -79 -43z m131 -54 c21 -49
6 -101 -35 -126 -59 -35 -102 17 -80 97 11 40 42 66 77 66 17 0 27 -9 38 -37z"/>
<path d="M2005 1559 c-10 -15 3 -25 16 -12 7 7 7 13 1 17 -6 3 -14 1 -17 -5z"/>
<path d="M1969 1499 c-8 -16 -7 -16 21 -2 36 17 36 19 9 19 -11 0 -25 -8 -30
-17z"/>
<path d="M1545 1546 c-40 -15 -173 -146 -232 -229 -35 -50 -42 -127 -16 -176
41 -79 115 -98 218 -57 80 32 91 32 165 1 72 -30 108 -31 161 -5 43 23 75 67
85 116 8 45 -23 110 -88 180 -29 33 -66 76 -82 96 -55 73 -135 101 -211 74z
m139 -89 c67 -69 146 -165 162 -195 33 -65 -2 -142 -66 -142 -38 0 -38 13 1
40 16 12 28 24 25 27 -3 3 -20 -9 -38 -26 -18 -17 -36 -31 -39 -31 -4 0 -28
10 -54 21 -56 25 -112 21 -175 -11 -89 -45 -160 -9 -160 82 0 40 12 58 104
162 119 132 168 148 240 73z"/>
<path d="M2713 954 c-43 -37 -79 -72 -81 -78 -4 -16 172 -271 186 -271 13 0
172 132 172 143 0 4 -10 20 -23 35 l-23 29 -56 -46 c-49 -40 -58 -43 -69 -30
-10 13 -5 22 30 58 43 43 43 44 26 70 -22 33 -35 33 -70 -4 -31 -33 -50 -38
-58 -16 -3 7 16 34 44 62 27 26 49 53 49 59 -1 11 -35 55 -43 55 -3 0 -40 -30
-84 -66z"/>
<path d="M283 885 l-102 -124 30 -26 31 -26 32 37 32 38 42 -17 c83 -33 153
-12 185 56 22 46 21 69 -4 101 -16 20 -125 87 -141 86 -2 0 -49 -56 -105 -125z
m158 15 c35 -19 17 -70 -24 -70 -10 0 -27 5 -39 11 -20 11 -19 11 8 40 32 33
29 32 55 19z m-211 -121 c-12 -16 -25 -28 -28 -25 -5 6 36 56 45 56 3 0 -5
-14 -17 -31z"/>
<path d="M637 821 c-24 -26 -157 -254 -157 -268 0 -6 38 -30 85 -52 122 -57
119 -57 138 -16 l17 35 -60 30 c-56 28 -73 51 -51 65 5 3 33 -4 61 -15 28 -11
53 -20 55 -20 3 0 11 13 20 30 l15 30 -51 25 c-86 44 -43 67 54 29 l48 -19 19
25 c11 14 20 30 20 35 0 6 -45 32 -99 57 -92 42 -101 44 -114 29z"/>
<path d="M2469 795 c-42 -28 -49 -42 -49 -99 0 -64 30 -91 107 -100 43 -5 63
-12 67 -23 9 -23 -5 -34 -53 -40 -37 -5 -41 -8 -41 -34 0 -36 11 -42 60 -34
86 14 141 78 120 139 -16 48 -41 66 -102 75 -63 8 -78 16 -78 40 0 29 13 33
31 10 15 -20 19 -21 48 -9 38 15 39 29 5 69 -32 38 -66 40 -115 6z"/>
<path d="M886 670 c-9 -22 -16 -42 -16 -44 0 -2 18 -7 41 -11 32 -6 39 -10 34
-23 -35 -88 -55 -154 -49 -164 5 -7 3 -8 -6 -3 -10 6 -12 3 -8 -13 4 -12 2
-20 -3 -16 -5 3 -9 -4 -9 -16 0 -13 9 -24 26 -30 40 -16 51 -12 59 18 3 15 13
41 20 57 8 17 25 59 38 95 15 40 30 64 38 62 63 -15 65 -15 76 22 l11 36 -112
35 c-62 19 -115 35 -118 35 -3 0 -13 -18 -22 -40z"/>
<path d="M2263 700 c-28 -12 -28 -13 6 -134 29 -104 30 -130 3 -141 -26 -10
-39 14 -67 120 -14 55 -28 105 -30 112 -3 9 -13 9 -39 1 -28 -9 -36 -17 -36
-35 0 -13 3 -23 8 -23 4 0 7 -15 8 -33 1 -52 42 -173 70 -206 31 -37 60 -39
121 -10 82 39 91 98 40 254 -34 103 -42 112 -84 95z"/>
<path d="M1883 604 c-43 -21 -67 -75 -67 -149 -1 -87 10 -127 45 -163 54 -55
135 -37 174 38 17 34 20 128 4 183 -22 82 -93 123 -156 91z m65 -79 c31 -67
22 -185 -12 -185 -30 0 -49 147 -26 191 14 26 25 24 38 -6z"/>
<path d="M1237 589 c-24 -14 -47 -62 -47 -100 0 -24 11 -44 45 -80 63 -67 44
-108 -27 -57 l-31 21 -18 -24 c-24 -31 -21 -39 31 -66 58 -31 114 -30 145 1
50 50 45 103 -15 165 -42 43 -48 59 -28 79 19 19 28 14 28 -17 0 -25 5 -30 31
-36 37 -8 49 4 49 52 0 45 -38 73 -99 73 -25 0 -54 -5 -64 -11z"/>
<path d="M1647 584 c-4 -4 -7 -30 -7 -58 0 -64 -9 -79 -45 -74 -29 3 -29 4
-26 66 l2 62 -39 0 c-49 0 -48 3 -58 -197 l-7 -153 47 0 46 0 0 65 c0 61 2 66
26 75 45 17 47 14 42 -60 l-5 -70 48 0 49 0 2 130 c4 242 8 215 -32 218 -20 2
-39 0 -43 -4z"/>
</g>
</svg>
